<?xml version="1.0" standalone="no"?>
<!DOCTYPE svg PUBLIC "-//W3C//DTD SVG 20010904//EN"
 "http://www.w3.org/TR/2001/REC-SVG-20010904/DTD/svg10.dtd">
<svg version="1.0" xmlns="http://www.w3.org/2000/svg"
 width="260.000000pt" height="260.000000pt" viewBox="0 0 260.000000 260.000000"
 preserveAspectRatio="xMidYMid meet">
<metadata>
Created by potrace 1.11, written by Peter Selinger 2001-2013
</metadata>
<g transform="translate(0.000000,260.000000) scale(0.100000,-0.100000)"
fill="#000000" stroke="none">
<path d="M0 1300 l0 -1300 1300 0 1300 0 0 1300 0 1300 -1300 0 -1300 0 0
-1300z m2146 339 c62 -11 198 -53 224 -69 12 -8 10 -23 -18 -110 -18 -55 -35
-100 -37 -100 -2 0 -27 9 -55 20 -124 49 -311 61 -396 25 -73 -30 -107 -100
-84 -169 20 -61 77 -99 233 -156 247 -91 335 -149 394 -261 26 -50 28 -63 28
-164 0 -100 -3 -115 -28 -166 -53 -109 -160 -184 -309 -215 -91 -20 -313 -13
-403 11 -69 19 -185 70 -185 82 0 4 14 53 31 109 l31 101 79 -34 c112 -49 233
-69 325 -56 127 18 198 70 205 148 4 59 -1 84 -27 115 -33 39 -88 67 -237 119
-65 22 -143 53 -174 68 -82 41 -157 113 -194 189 -60 121 -39 287 49 385 52
58 137 105 226 124 75 16 242 19 322 4z m-1656 -284 l0 -275 275 0 275 0 0
275 0 275 130 0 130 0 0 -675 0 -675 -130 0 -130 0 0 290 0 290 -275 0 -275 0
0 -290 0 -290 -130 0 -130 0 0 675 0 675 130 0 130 0 0 -275z"/>
</g>
</svg>
